<?xml version="1.0" encoding="UTF-8" standalone="no"?><!DOCTYPE svg PUBLIC "-//W3C//DTD SVG 1.1//EN" "http://www.w3.org/Graphics/SVG/1.1/DTD/svg11.dtd"><svg width="100%" height="100%" viewBox="0 0 116 120" version="1.1" xmlns="http://www.w3.org/2000/svg" xmlns:xlink="http://www.w3.org/1999/xlink" xml:space="preserve" xmlns:serif="http://www.serif.com/" style="fill-rule:evenodd;clip-rule:evenodd;stroke-linejoin:round;stroke-miterlimit:2;"><g><path d="M5.945,119.025l0,-64.273c0,0 -5.547,-3.832 -5.866,-10.597l-0.213,-13.421l14.686,-29.242c-0,0 1.089,-1.308 2.233,-1.085l82.739,0c0,0 1.779,1.927 2.651,3.491c-0,0 12.467,24.894 13.382,26.771l0,12.469c0,-0 0.218,6.48 -6.321,11.038l0,65.548l-103.291,-0.699Z" style="fill:#0872db;"/><path d="M13.267,111.778l89.074,-0l0,-54.599c0,-0 -9.44,-1.069 -11.769,-5.72c0,0 -4.781,5.657 -9.562,5.028c-0,0 -7.234,1.509 -12.26,-5.279c-0,0 -2.697,4.525 -7.479,5.154c0,-0 -8.965,1.854 -14.426,-4.968c0,0 -3.578,4.248 -7.595,5.02c0,-0 -8.913,1.866 -14.311,-5.149c-0,0 -3.578,6.114 -11.675,5.406l0.003,55.107Z" style="fill:#fff;"/><path d="M7.016,36.076l14.358,0l0,6.838c0,0 -0.313,4.023 -5.256,6.275c-0,0 -3.49,0.274 -4.344,-0.087c-0,0 -4.52,-1.75 -4.971,-5.869l0.213,-7.157Z" style="fill:#fff;"/><path d="M28.828,36.076l14.359,0l-0,6.838c-0,0 -0.314,4.023 -5.257,6.275c-0,0 -3.49,0.274 -4.344,-0.087c0,0 -4.519,-1.75 -4.971,-5.869l0.213,-7.157Z" style="fill:#fff;"/><path d="M50.823,36.076l14.358,0l0,6.838c0,0 -0.314,4.023 -5.257,6.275c0,0 -3.49,0.274 -4.343,-0.087c-0,0 -4.52,-1.75 -4.972,-5.869l0.214,-7.157Z" style="fill:#fff;"/><path d="M72.365,36.076l14.359,0l-0,6.838c-0,0 -0.314,4.023 -5.257,6.275c-0,0 -3.49,0.274 -4.344,-0.087c0,0 -4.519,-1.75 -4.971,-5.869l0.213,-7.157Z" style="fill:#fff;"/><path d="M94.159,36.076l14.358,0l0,6.838c0,0 -0.314,4.023 -5.257,6.275c0,0 -3.49,0.274 -4.343,-0.087c-0,0 -4.52,-1.75 -4.972,-5.869l0.214,-7.157Z" style="fill:#fff;"/><path d="M9.369,28.467l12.938,-0l6.268,-20.821l-8.922,-0l-10.284,20.821Z" style="fill:#fff;"/><path d="M106.151,28.467l-12.937,-0l-6.268,-20.821l8.922,-0l10.283,20.821Z" style="fill:#fff;"/><path d="M30.115,28.347l13.281,0l2.129,-20.687l-9.195,0l-6.215,20.687Z" style="fill:#fff;"/><path d="M85.539,28.347l-13.281,0l-2.129,-20.687l9.195,0l6.215,20.687Z" style="fill:#fff;"/><path d="M50.803,28.347l14.048,0l-2.64,-20.687l-9.62,0l-1.788,20.687Z" style="fill:#fff;"/><path d="M28.422,111.811l-0,-37.777l17.512,0l0,38.163l7.407,0l0,-45.306l-31.887,-0l0,45.049l6.968,-0.129Z" style="fill:#0872db;"/><path d="M94.512,67.196l-0,31.298l-34.572,0l-0,-31.298l34.572,0Zm-7.601,7.291l-20.106,-0l0,16.466l20.106,-0l-0,-16.466Z" style="fill:#0872db;"/></g></svg>