<?xml version="1.0" encoding="UTF-8" standalone="no"?><!DOCTYPE svg PUBLIC "-//W3C//DTD SVG 1.1//EN" "http://www.w3.org/Graphics/SVG/1.1/DTD/svg11.dtd"><svg width="100%" height="100%" viewBox="0 0 125 120" version="1.1" xmlns="http://www.w3.org/2000/svg" xmlns:xlink="http://www.w3.org/1999/xlink" xml:space="preserve" xmlns:serif="http://www.serif.com/" style="fill-rule:evenodd;clip-rule:evenodd;stroke-linejoin:round;stroke-miterlimit:2;"><g><path d="M64.196,88.334l-0,-24.996c-0,0 -0.066,-1.124 1.521,-1.52l32.402,-0c-0,-0 2.182,0.066 1.984,1.719" style="fill:none;"/><path d="M14.541,107.298l-8.163,-0c0,-0 -1.187,0.593 -1.292,1.81l-0,9.258c-0,-0 0.423,1.216 1.745,1.428l111.378,0c-0,0 1.318,-0.066 1.614,-1.42c0.297,-1.355 0,-9.48 0,-9.48c0,-0 -0.084,-1.228 -1.565,-1.355l-103.717,-0.241Z" style="fill:#0872db;"/><path d="M9.065,110.914l107.249,0l0,5.27l-107.456,-0l0.207,-5.27Z" style="fill:#0872db;"/><path d="M18.14,109.178l-0,-62.998l43.602,-26.554c0,-0 0.885,-0.598 1.901,0.08l43.379,26.493l0,62.231l3.549,-0.145l0,-60.018l2.889,1.46c-0,-0 2.844,1.185 5.992,0.068c0,-0 4.707,-1.683 5.248,-5.858c0,0 0.644,-3.802 -0.812,-6.612c-0,0 -1.995,-2.559 -3.482,-3.22l-55.051,-33.477c0,-0 -2.471,-0.991 -4.756,-0.06l-57.896,34.999c0,0 -2.158,2.37 -2.412,4.867c0,0 -1.481,7.153 5.502,9.311c-0,-0 3.639,0.973 5.544,-0.169l2.971,-1.375c-0,-0 0.52,-0.33 0.433,0.433l-0,60.486l3.399,0.058Z" style="fill:#0872db;"/><path d="M10.833,46.544l50.504,-30.996c-0,-0 1.62,-0.949 3.048,0.32l50.204,30.736c-0,-0 2.015,0.657 3.776,-0.183c1.76,-0.84 2.817,-1.76 3.169,-3.602c-0,-0 0.406,-2.628 -0.84,-4.036l-56.25,-34.63c0,0 -1.82,-1.058 -3.216,0l-56.16,34.153c-0,0 -1.398,1.253 -1.419,2.704c-0,0 -0.52,4.117 3.488,5.547c0,0 1.801,0.69 3.696,-0.013Z" style="fill:#0872db;"/><path d="M100.103,63.69l-0,24.624c-0,1.106 -0.899,2.004 -2.005,2.004l-31.898,0c-1.106,0 -2.004,-0.898 -2.004,-2.004l-0,-24.624c-0,-1.107 0.898,-2.005 2.004,-2.005l31.898,0c1.106,0 2.005,0.898 2.005,2.005Zm-3.902,1.765l-12.299,-0l-0,8.861l12.299,-0l0,-8.861Zm0,12.167l-12.299,-0l-0,8.861l12.299,-0l0,-8.861Zm-15.87,-0l-12.3,-0l0,8.861l12.3,-0l-0,-8.861Zm-0,-12.167l-12.3,-0l0,8.861l12.3,-0l-0,-8.861Z" style="fill:#0872db;"/><path d="M62.571,28.78c5.645,0 10.229,4.352 10.229,9.712c-0,5.361 -4.584,9.713 -10.229,9.713c-5.646,-0 -10.229,-4.352 -10.229,-9.713c-0,-5.36 4.583,-9.712 10.229,-9.712Zm0.155,3.306c-3.679,0 -6.665,2.871 -6.665,6.406c0,3.536 2.986,6.406 6.665,6.406c3.678,0 6.664,-2.87 6.664,-6.406c-0,-3.535 -2.986,-6.406 -6.664,-6.406Z" style="fill:#0872db;"/><path d="M57.071,107.209l-0,-32.32c-0,0 -0.992,-10.157 -11.986,-12.977c0,-0 -4.877,-0.588 -9.919,0.734c0,0 -8.266,2.91 -9.985,12.697l0,32.865l3.703,-0l0,-32.601c0,0 1.124,-7.604 9.126,-9.919c-0,0 4.695,-0.595 6.348,0.066c-0,0 7.737,2.513 8.662,9.523l0,32.336l4.043,-0l0.008,-0.404Z" style="fill:#0872db;"/></g></svg>